<svg xmlns="http://www.w3.org/2000/svg" viewBox="0 0 1600 900">
  <rect width="1600" height="900" fill="#050810"/>
  <circle cx="1260" cy="-80" r="420" fill="#00d18c" opacity="0.08"/>
  <circle cx="-80" cy="760" r="360" fill="#00a8ff" opacity="0.08"/>
  <rect x="64" y="48" width="1472" height="804" rx="36" fill="#0a1322" stroke="#1a2340" stroke-width="2"/>
  <g transform="translate(104 88)">
    <circle cx="28" cy="28" r="26" fill="#0e1730" stroke="#00d18c" stroke-width="2"/>
    <circle cx="28" cy="28" r="16" fill="none" stroke="#00d18c" opacity="0.6" stroke-width="2"/>
    <circle cx="28" cy="28" r="7" fill="#00f0a8"/>
    <text x="72" y="25" fill="#f0f4ff" font-family="Helvetica" font-size="28" font-weight="700">RepoScope</text>
    <text x="72" y="52" fill="#8892a4" font-family="Helvetica" font-size="16">AI Cost Intelligence for Cursor, VS Code, and Windsurf</text>
  </g>
  <text x="104" y="198" fill="#f0f4ff" font-family="Helvetica" font-size="56" font-weight="800">Find the files burning your AI budget</text>
  <text x="106" y="238" fill="#8892a4" font-family="Helvetica" font-size="22">BPE-accurate token cost per file before you send context to an LLM.</text>

  <rect x="104" y="300" width="260" height="120" rx="22" fill="#0e1730" stroke="#1a2340"/>
    <text x="130" y="352" fill="#00d18c" font-family="Helvetica" font-size="36" font-weight="800">67,312</text>
    <text x="130" y="386" fill="#8892a4" font-family="Helvetica" font-size="18">tokens saveable</text>
  <rect x="392" y="300" width="260" height="120" rx="22" fill="#0e1730" stroke="#1a2340"/>
    <text x="418" y="352" fill="#00a8ff" font-family="Helvetica" font-size="36" font-weight="800">$4.20</text>
    <text x="418" y="386" fill="#8892a4" font-family="Helvetica" font-size="18">estimated daily waste</text>
  <rect x="680" y="300" width="260" height="120" rx="22" fill="#0e1730" stroke="#1a2340"/>
    <text x="706" y="352" fill="#fbbf24" font-family="Helvetica" font-size="36" font-weight="800">4 files</text>
    <text x="706" y="386" fill="#8892a4" font-family="Helvetica" font-size="18">drive 63% of spend</text>
  <rect x="104" y="468" width="672" height="298" rx="24" fill="#0e1730" stroke="#1a2340"/>
  <text x="132" y="516" fill="#f0f4ff" font-family="Helvetica" font-size="24" font-weight="700">Top token offenders</text>
  <text x="132" y="570" fill="#f0f4ff" font-family="Helvetica" font-size="20">dist/vendor.bundle.js</text><rect x="456" y="548" width="198" height="18" rx="9" fill="#f87171" opacity="0.9"/><text x="690" y="570" fill="#8892a4" font-family="Helvetica" font-size="18" text-anchor="end">42.8k</text><text x="132" y="612" fill="#f0f4ff" font-family="Helvetica" font-size="20">package-lock.json</text><rect x="456" y="590" width="146" height="18" rx="9" fill="#fbbf24" opacity="0.9"/><text x="690" y="612" fill="#8892a4" font-family="Helvetica" font-size="18" text-anchor="end">18.4k</text><text x="132" y="654" fill="#8892a4" font-family="Helvetica" font-size="20">src/types/generated.ts</text><rect x="456" y="632" width="116" height="18" rx="9" fill="#00d18c" opacity="0.9"/><text x="690" y="654" fill="#8892a4" font-family="Helvetica" font-size="18" text-anchor="end">9.1k</text><text x="132" y="696" fill="#8892a4" font-family="Helvetica" font-size="20">src/index.ts</text><rect x="456" y="674" width="92" height="18" rx="9" fill="#00a8ff" opacity="0.9"/><text x="690" y="696" fill="#8892a4" font-family="Helvetica" font-size="18" text-anchor="end">6.2k</text><text x="132" y="738" fill="#8892a4" font-family="Helvetica" font-size="20">README.md</text><rect x="456" y="716" width="58" height="18" rx="9" fill="#00d18c" opacity="0.9"/><text x="690" y="738" fill="#8892a4" font-family="Helvetica" font-size="18" text-anchor="end">2.6k</text>
  <rect x="828" y="300" width="604" height="466" rx="24" fill="#0e1730" stroke="#1a2340"/>
  <text x="860" y="350" fill="#f0f4ff" font-family="Helvetica" font-size="28" font-weight="700">Actionable fix plan</text>
  <text x="860" y="406" fill="#8892a4" font-family="Helvetica" font-size="22">Exclude generated bundles</text>
  <text x="860" y="458" fill="#8892a4" font-family="Helvetica" font-size="22">Prune barrel exports</text>
  <text x="860" y="510" fill="#8892a4" font-family="Helvetica" font-size="22">Split generated types</text>
  <rect x="860" y="590" width="300" height="54" rx="27" fill="#00d18c"/>
  <text x="1010" y="625" fill="#050810" font-family="Helvetica" font-size="20" font-weight="800" text-anchor="middle">Copy AI fix prompt</text>
</svg>
